<svg xmlns="http://www.w3.org/2000/svg" width="1200" height="630" viewBox="0 0 1200 630" role="img" aria-labelledby="title desc">
  <title id="title">ONICHA discussion eyecatch</title>
  <desc id="desc">A calm editorial illustration of a tea cup and social reactions.</desc>
  <defs>
    <linearGradient id="bg" x1="0" y1="0" x2="1" y2="1">
      <stop offset="0" stop-color="#fbfff9"/>
      <stop offset="0.52" stop-color="#f6faf4"/>
      <stop offset="1" stop-color="#fff7f3"/>
    </linearGradient>
    <linearGradient id="tea" x1="0" y1="0" x2="1" y2="1">
      <stop offset="0" stop-color="#47734c"/>
      <stop offset="1" stop-color="#173d2b"/>
    </linearGradient>
    <filter id="softShadow" x="-20%" y="-20%" width="140%" height="140%">
      <feDropShadow dx="0" dy="18" stdDeviation="22" flood-color="#163225" flood-opacity="0.12"/>
    </filter>
    <filter id="cardShadow" x="-20%" y="-20%" width="140%" height="140%">
      <feDropShadow dx="0" dy="10" stdDeviation="18" flood-color="#162319" flood-opacity="0.08"/>
    </filter>
  </defs>

  <rect width="1200" height="630" rx="38" fill="url(#bg)"/>
  <circle cx="1020" cy="90" r="152" fill="#eaf4e7" opacity="0.85"/>
  <circle cx="160" cy="548" r="170" fill="#fff0e8" opacity="0.75"/>
  <path d="M112 154C248 81 391 72 532 127c115 45 182 35 293 10 111-26 202 5 270 78" fill="none" stroke="#dbe9d8" stroke-width="3" stroke-linecap="round"/>

  <g filter="url(#softShadow)">
    <rect x="92" y="96" width="1016" height="438" rx="34" fill="#ffffff" opacity="0.94"/>
  </g>

  <g transform="translate(136 132)">
    <rect x="0" y="0" width="164" height="42" rx="21" fill="#e9f4e7"/>
    <circle cx="26" cy="21" r="8" fill="#2d6b43"/>
    <text x="46" y="27" font-family="Arial, Helvetica, sans-serif" font-size="18" font-weight="700" fill="#244531">真相メモ</text>
  </g>

  <g transform="translate(136 218)">
    <text x="0" y="0" font-family="Arial, Helvetica, sans-serif" font-size="82" font-weight="900" letter-spacing="1" fill="#102016">ONICHA</text>
    <text x="0" y="54" font-family="Arial, Helvetica, sans-serif" font-size="32" font-weight="800" fill="#162319">なぜ話題になった？</text>
    <text x="0" y="104" font-family="Arial, Helvetica, sans-serif" font-size="24" font-weight="600" fill="#61706a">発表前の演出、宣伝表現、売り切れ報告まで整理</text>
  </g>

  <g transform="translate(705 143)">
    <g filter="url(#cardShadow)">
      <rect x="0" y="0" width="286" height="330" rx="36" fill="#f7fbf6"/>
    </g>
    <ellipse cx="143" cy="271" rx="112" ry="27" fill="#dce8d8"/>
    <path d="M76 146h134v86c0 39-30 70-67 70s-67-31-67-70z" fill="url(#tea)"/>
    <path d="M210 170h31c20 0 36 16 36 36s-16 36-36 36h-31" fill="none" stroke="#173d2b" stroke-width="18" stroke-linecap="round"/>
    <path d="M96 154c26 19 65 20 94 0" fill="none" stroke="#8dbf72" stroke-width="10" stroke-linecap="round" opacity="0.9"/>
    <path d="M112 113c-18-27 16-39-4-68" fill="none" stroke="#acc7a3" stroke-width="8" stroke-linecap="round"/>
    <path d="M151 111c-18-29 17-42-5-75" fill="none" stroke="#acc7a3" stroke-width="8" stroke-linecap="round"/>
    <path d="M190 113c-18-27 16-39-4-68" fill="none" stroke="#acc7a3" stroke-width="8" stroke-linecap="round"/>
  </g>

  <g opacity="0.96">
    <rect x="845" y="124" width="136" height="50" rx="25" fill="#fff" stroke="#e1e8df"/>
    <text x="873" y="157" font-family="Arial, Helvetica, sans-serif" font-size="19" font-weight="800" fill="#1b2d22">売り切れ</text>
    <circle cx="994" cy="149" r="7" fill="#ef6c4e"/>

    <rect x="912" y="426" width="152" height="54" rx="27" fill="#fff" stroke="#e1e8df"/>
    <text x="941" y="461" font-family="Arial, Helvetica, sans-serif" font-size="19" font-weight="800" fill="#1b2d22">賛否の声</text>
    <circle cx="1079" cy="453" r="7" fill="#2f7a4f"/>

    <rect x="609" y="102" width="128" height="48" rx="24" fill="#fff" stroke="#e1e8df"/>
    <text x="635" y="133" font-family="Arial, Helvetica, sans-serif" font-size="18" font-weight="800" fill="#1b2d22">謎配信</text>
    <circle cx="749" cy="126" r="7" fill="#efb05a"/>
  </g>

  <g fill="none" stroke="#c9dbc6" stroke-width="4" stroke-linecap="round">
    <path d="M752 128c49 16 71 36 96 63"/>
    <path d="M912 428c-61-11-93-39-116-74"/>
    <path d="M861 165c-35 30-50 57-52 94"/>
  </g>

  <g transform="translate(136 408)">
    <rect x="0" y="0" width="162" height="46" rx="23" fill="#f3f7f2" stroke="#dfe9dc"/>
    <text x="28" y="30" font-family="Arial, Helvetica, sans-serif" font-size="18" font-weight="800" fill="#385542">HIKAKIN</text>
    <rect x="178" y="0" width="164" height="46" rx="23" fill="#f3f7f2" stroke="#dfe9dc"/>
    <text x="206" y="30" font-family="Arial, Helvetica, sans-serif" font-size="18" font-weight="800" fill="#385542">麦茶</text>
    <rect x="300" y="0" width="180" height="46" rx="23" fill="#fff3ec" stroke="#f2d8ca"/>
    <text x="328" y="30" font-family="Arial, Helvetica, sans-serif" font-size="18" font-weight="800" fill="#7b412e">SNS拡散</text>
  </g>
</svg>
